<svg xmlns="http://www.w3.org/2000/svg" width="1077" height="974" viewBox="0 0 1077 974"><defs><linearGradient id="frogGrad" x1="0" y1="0" x2="1" y2="1"><stop offset="0%" stop-color="#00ff87"/><stop offset="100%" stop-color="#60efff"/></linearGradient></defs>
<g>

<path d="M 656.00 474.00 C655.30,474.45 655.01,474.84 655.25,474.95 C648.10,477.08 640.80,479.00 633.38,480.70 C635.35,480.04 635.05,480.07 632.13,480.50 C629.36,480.91 628.96,480.75 629.89,479.64 C630.80,478.54 630.54,478.36 628.55,478.75 C624.59,479.50 623.20,477.13 622.74,468.81 C622.51,464.69 622.00,460.80 621.60,460.16 C621.19,459.50 618.42,458.99 615.19,458.98 C608.43,458.97 607.08,458.28 606.79,454.69 C606.61,452.56 606.04,451.99 604.03,451.93 C601.72,451.87 601.67,451.78 603.50,451.00 C605.24,450.25 605.12,450.13 602.58,450.07 C600.98,450.03 599.86,449.81 600.09,449.58 C600.91,448.75 610.09,448.04 609.60,448.84 C609.32,449.29 610.08,449.55 611.30,449.41 C612.51,449.28 614.06,449.13 614.75,449.08 C616.20,448.99 616.48,446.00 615.04,446.00 C614.72,446.00 614.37,446.01 614.01,446.03 C615.17,445.83 616.31,445.64 617.42,445.44 C617.54,445.55 617.73,445.71 618.00,445.90 C618.83,446.49 619.11,446.98 618.63,446.98 C618.15,446.99 618.32,447.67 619.00,448.50 C620.72,450.58 622.73,450.37 624.00,448.00 C624.88,446.35 624.76,446.00 623.29,445.99 C622.30,445.98 620.38,445.71 619.00,445.40 C618.77,445.35 618.56,445.30 618.38,445.26 C626.73,443.74 633.51,442.13 640.58,440.10 C686.32,426.96 729.57,401.00 751.12,373.73 C755.57,368.09 762.30,356.97 761.65,356.32 C761.41,356.08 758.58,356.70 755.36,357.69 C750.92,359.06 746.48,359.47 737.00,359.39 C722.77,359.27 709.48,356.66 688.03,349.78 C660.82,341.06 626.80,331.10 615.94,328.67 C560.54,316.27 510.94,319.09 451.50,338.01 C467.32,332.97 480.77,329.51 499.50,325.64 C501.12,325.31 501.03,325.20 499.00,325.05 C496.66,324.87 496.63,324.80 498.50,323.92 C500.08,323.18 499.77,323.06 497.01,323.36 C492.84,323.80 488.27,322.42 485.44,319.86 C482.71,317.41 479.58,317.50 477.86,320.09 L 476.47 322.17 L 470.89 319.90 C465.99,317.90 465.05,317.04 463.11,312.81 L 460.90 308.00 L 454.95 308.00 C449.58,308.00 448.46,307.47 449.25,305.32 C449.39,304.94 450.40,304.57 451.50,304.50 C452.60,304.44 454.57,304.02 455.88,303.58 C457.52,303.03 458.04,303.13 457.57,303.89 C457.18,304.52 457.56,305.00 458.44,305.00 C459.42,305.00 460.00,304.11 460.00,302.61 C460.00,300.71 459.37,300.14 456.91,299.77 C455.11,299.51 453.27,299.87 452.49,300.65 C451.63,301.51 450.05,301.76 448.00,301.35 C445.77,300.90 445.23,300.47 446.17,299.87 C446.76,299.50 446.99,299.26 446.91,299.14 C448.30,298.80 449.64,298.50 451.00,298.20 C453.48,297.67 461.80,295.62 469.50,293.64 C500.39,285.73 530.64,282.32 561.00,283.33 C583.13,284.06 591.14,285.00 613.50,289.50 C635.71,293.98 657.99,300.00 693.00,310.97 C727.12,321.67 732.36,322.97 741.61,322.99 C756.32,323.02 764.23,320.04 764.81,314.24 C765.52,307.10 755.26,288.39 733.15,256.50 C730.22,252.26 727.18,247.28 726.40,245.43 C723.55,238.60 725.06,231.62 731.59,221.45 C743.62,202.70 747.13,178.80 740.60,160.10 C737.24,150.47 733.27,144.41 725.65,137.29 C713.81,126.23 701.46,121.73 683.00,121.75 C674.23,121.76 671.27,122.20 665.01,124.40 C651.32,129.23 644.86,134.27 625.00,155.65 C616.92,164.33 616.21,164.85 610.72,165.97 C605.58,167.02 603.23,166.84 589.22,164.33 C574.81,161.74 571.54,161.50 550.00,161.55 C530.13,161.59 524.69,161.94 514.80,163.80 C500.26,166.53 491.93,166.60 486.28,164.04 C483.84,162.93 479.21,159.04 475.28,154.81 C459.28,137.56 452.35,131.82 441.69,127.04 C432.68,123.00 425.72,121.59 415.00,121.63 C389.38,121.72 367.72,136.99 358.86,161.20 C355.98,169.07 355.84,170.12 356.22,181.50 C356.74,197.36 359.25,204.71 370.93,224.65 C374.12,230.10 375.48,236.11 374.78,241.17 C373.72,240.09 369.20,238.13 368.65,238.68 C368.32,239.01 367.32,238.68 366.43,237.95 C364.96,236.72 364.98,236.49 366.65,235.26 C367.97,234.30 368.15,233.71 367.30,233.18 C366.55,232.72 366.25,230.68 366.49,227.73 C366.79,224.04 366.51,222.81 365.19,222.14 C364.26,221.66 363.01,221.45 362.40,221.67 C361.80,221.89 360.73,221.38 360.03,220.53 C359.16,219.49 359.11,219.00 359.88,219.00 C360.49,219.00 361.00,219.45 361.00,220.00 C361.00,220.55 361.52,221.00 362.17,221.00 C362.81,221.00 363.05,220.72 362.70,220.37 C362.35,220.02 362.47,218.98 362.97,218.06 C363.50,217.07 363.49,215.80 362.95,214.95 C362.31,213.95 362.03,213.89 362.02,214.75 C362.01,215.44 361.07,216.00 359.94,216.00 C358.55,216.00 358.13,216.41 358.65,217.25 C359.08,217.94 358.13,217.65 356.54,216.62 C353.76,214.80 353.62,214.80 352.33,216.56 C351.60,217.56 350.99,219.08 350.97,219.94 C350.89,223.63 348.66,224.75 341.25,224.82 C337.29,224.86 333.77,224.44 333.44,223.90 C333.10,223.36 332.60,220.10 332.32,216.66 C331.92,211.71 332.15,210.12 333.41,209.08 C337.00,206.09 334.27,199.87 330.56,202.58 C328.04,204.42 326.00,204.39 326.00,202.51 C326.00,200.37 322.85,197.00 320.84,197.00 C319.86,197.00 318.95,196.04 318.70,194.75 C318.47,193.51 318.48,194.52 318.72,197.00 C318.96,199.48 319.58,201.93 320.08,202.45 C320.59,202.97 321.00,204.65 321.00,206.18 C321.00,204.65 320.45,202.85 319.78,202.18 C318.03,200.43 317.46,175.64 318.96,166.34 C322.19,146.31 331.25,128.15 345.50,113.13 C354.17,103.98 362.22,98.17 373.65,92.82 C387.50,86.33 394.14,84.88 412.77,84.28 C427.22,83.82 430.14,84.02 438.77,86.00 C450.26,88.65 464.93,94.86 474.00,100.93 C477.58,103.32 485.40,110.23 491.40,116.27 L 502.30 127.26 L 509.90 126.11 C541.06,121.37 559.31,121.13 585.52,125.14 L 599.53 127.29 L 611.02 115.81 C623.33,103.50 627.84,100.12 640.10,93.95 C666.29,80.78 699.86,80.05 726.64,92.06 C745.68,100.60 764.48,119.41 773.01,138.42 C779.92,153.85 782.16,164.44 782.14,181.52 C782.11,197.67 777.90,215.09 770.35,230.22 C769.06,232.81 768.00,235.92 768.00,237.13 C768.00,238.34 772.23,245.67 777.40,253.41 C801.41,289.39 807.70,306.86 806.77,335.00 C806.37,346.85 805.92,349.73 803.04,358.50 C797.62,375.02 791.60,385.51 778.91,400.50 C757.11,426.27 725.25,448.03 685.40,464.36 C679.09,466.95 672.59,469.35 665.94,471.58 C665.86,471.46 665.28,471.20 664.25,470.84 C662.46,470.22 661.00,469.07 661.00,468.29 C661.00,466.05 656.59,467.16 656.14,469.50 C655.94,470.60 655.26,471.83 654.63,472.23 C653.94,472.68 654.28,472.98 655.50,473.00 C657.16,473.03 657.24,473.20 656.00,474.00 ZM 912.08 718.07 C912.79,718.52 913.36,718.81 913.72,718.92 C908.55,727.16 903.11,735.19 897.41,743.02 C897.89,742.11 897.38,742.31 895.96,743.50 L 893.58 745.50 L 895.29 742.79 C896.97,740.12 897.61,738.06 896.37,739.29 C896.03,739.64 894.78,738.48 893.59,736.72 C892.40,734.96 890.55,733.35 889.46,733.15 C888.38,732.96 886.83,732.22 886.00,731.53 C884.48,730.25 882.72,729.74 873.32,727.86 C869.52,727.10 868.28,726.45 868.67,725.42 C868.97,724.64 869.61,724.26 870.09,724.56 C870.58,724.86 870.71,724.40 870.37,723.53 C870.04,722.67 869.26,722.03 868.64,722.10 C866.10,722.40 864.92,721.94 865.57,720.89 C866.04,720.12 866.51,720.20 867.11,721.14 C867.83,722.29 867.97,722.29 867.98,721.14 C867.99,720.33 868.62,720.02 869.55,720.38 C870.55,720.77 870.85,720.57 870.40,719.84 C870.01,719.21 870.50,718.11 871.48,717.39 C872.66,716.53 873.06,715.35 872.68,713.88 C872.33,712.56 872.82,710.63 873.89,709.08 C876.23,705.69 877.11,704.15 876.76,704.01 C884.89,692.89 903.35,659.04 909.42,644.00 C918.38,621.78 927.45,594.41 930.61,580.00 C937.58,548.25 939.59,533.95 940.97,506.18 C942.04,484.53 941.13,464.00 937.99,439.49 C936.05,424.32 930.30,394.53 927.56,385.44 C926.74,382.72 924.85,376.45 923.37,371.50 C919.75,359.44 911.22,335.97 909.86,334.33 C909.01,333.31 905.19,337.53 892.75,353.26 C883.94,364.39 874.88,375.81 872.61,378.64 C870.35,381.47 866.82,385.97 864.77,388.64 C862.71,391.31 856.29,399.58 850.48,407.00 C844.68,414.42 835.79,425.85 830.72,432.39 C825.65,438.93 818.60,447.93 815.05,452.39 C801.76,469.09 797.89,474.01 781.96,494.50 C772.98,506.05 759.52,523.33 752.06,532.90 C744.60,542.46 733.55,556.67 727.50,564.45 C721.45,572.24 715.27,580.17 713.77,582.06 C713.27,582.70 712.15,584.11 710.64,586.03 C714.36,581.25 719.55,574.59 723.80,569.16 C729.47,561.91 733.88,555.62 733.61,555.18 C733.34,554.74 733.99,553.05 735.05,551.44 C737.16,548.23 737.57,546.53 736.00,547.50 C735.45,547.84 735.00,547.64 735.00,547.06 C735.00,546.48 735.53,546.00 736.17,546.00 C736.81,546.00 737.00,545.67 736.59,545.26 C736.18,544.85 734.50,546.08 732.86,548.01 L 729.88 551.50 L 730.50 547.50 C731.73,539.53 731.43,538.29 727.05,533.06 C722.55,527.69 720.14,526.74 719.29,530.00 C719.00,531.10 718.42,532.00 717.99,532.00 C717.57,532.00 717.28,532.79 717.36,533.75 C717.52,535.72 714.30,536.54 710.31,535.54 C708.14,535.00 708.00,534.71 709.16,533.27 C710.33,531.83 710.26,531.71 708.62,532.33 C706.85,533.00 706.84,532.90 708.35,530.59 C709.33,529.09 709.55,528.02 708.90,527.80 C708.33,527.61 708.89,526.14 710.16,524.52 C711.43,522.91 711.95,521.92 711.31,522.31 C711.25,522.34 711.16,522.42 711.06,522.52 L 711.07 522.50 C713.07,520.30 722.47,508.60 731.96,496.50 C751.05,472.15 751.60,471.45 769.75,448.00 C776.78,438.92 787.92,424.68 794.51,416.33 C801.11,407.99 809.88,396.82 814.00,391.50 C818.12,386.18 826.78,375.13 833.23,366.95 C839.69,358.76 848.72,347.21 853.31,341.28 C857.89,335.35 867.59,322.87 874.85,313.54 C882.12,304.22 888.32,295.59 888.62,294.37 C889.33,291.55 884.05,282.30 870.70,263.00 C856.41,242.35 843.54,226.75 825.23,207.91 L 809.27 191.50 L 808.07 179.50 C807.41,172.90 805.97,162.55 804.86,156.50 C801.90,140.24 801.64,138.00 802.69,138.00 C803.98,138.00 816.43,147.46 827.50,156.84 C859.99,184.37 891.30,220.90 915.51,259.50 C929.73,282.17 949.49,324.56 957.60,349.82 C960.92,360.14 969.38,393.11 971.90,405.50 C988.44,486.93 979.40,576.50 946.75,654.85 C938.40,674.88 928.81,693.93 917.95,712.01 C918.05,711.38 917.75,711.00 917.00,711.00 C916.45,711.00 916.00,711.48 916.00,712.06 C916.00,712.64 915.57,712.85 915.04,712.53 C914.52,712.20 913.32,713.11 912.37,714.55 C910.91,716.78 910.87,717.31 912.08,718.07 ZM 834.98 670.42 C834.99,672.23 835.13,673.01 835.35,672.80 C834.84,675.00 834.33,677.11 833.82,679.17 C833.99,678.40 834.15,677.65 834.27,676.95 C834.60,675.05 834.63,674.07 834.35,674.76 C834.06,675.45 833.44,675.77 832.96,675.47 C831.74,674.72 828.00,677.20 828.00,678.76 C828.00,679.60 827.08,679.87 825.33,679.56 C822.47,679.04 821.04,677.49 821.02,674.87 C821.00,672.89 818.68,670.82 816.93,671.21 C815.44,671.55 814.30,668.44 813.48,661.80 C812.89,657.12 812.89,657.11 808.72,656.80 C805.44,656.56 804.28,655.97 803.29,654.00 C802.60,652.62 801.98,651.95 801.92,652.50 C801.85,653.05 801.40,652.38 800.91,651.00 C800.74,650.52 800.61,650.15 800.51,649.91 C804.31,633.57 805.73,622.61 807.01,603.50 C808.35,583.48 806.82,558.21 802.87,535.17 C801.20,525.45 799.62,515.92 799.34,514.00 C798.91,510.92 799.54,509.60 804.67,502.95 C807.88,498.79 811.85,493.62 813.49,491.45 C818.88,484.34 826.27,475.51 827.09,475.18 C828.46,474.65 834.71,497.06 839.04,518.00 C844.85,546.08 845.46,552.61 845.45,586.50 C845.43,619.23 844.57,628.43 838.91,656.33 C838.11,660.24 837.34,663.90 836.58,667.36 C836.84,665.46 836.67,665.09 836.05,666.00 C835.18,667.28 835.03,667.24 835.02,665.69 C835.01,664.70 834.55,664.16 834.00,664.50 C833.45,664.84 833.01,666.33 833.02,667.81 C833.03,669.91 833.24,670.17 834.00,669.00 C834.75,667.84 834.97,668.17 834.98,670.42 ZM 681.68 229.98 C670.83,226.72 663.06,209.72 663.02,189.12 C662.99,177.48 664.80,168.86 668.96,160.68 C672.98,152.81 677.90,148.21 683.27,147.34 C688.48,146.50 691.28,147.49 695.27,151.60 C713.63,170.50 709.49,223.06 689.10,229.87 C687.19,230.50 686.30,230.82 685.40,230.83 C684.56,230.85 683.71,230.59 682.03,230.09 ZM 410.45 229.59 C395.76,223.19 388.64,191.03 396.62,167.10 C399.56,158.28 403.09,153.06 408.45,149.57 C421.98,140.77 435.26,156.81 436.73,183.72 C437.94,205.91 431.10,224.99 420.28,229.62 C416.33,231.31 414.38,231.31 410.45,229.59 ZM 576.00 247.00 C569.28,240.28 582.55,220.02 593.68,220.00 C597.21,220.00 601.00,223.76 601.00,227.27 C601.00,233.90 594.35,244.22 587.94,247.53 C583.86,249.64 578.40,249.40 576.00,247.00 ZM 512.40 246.17 C503.48,239.70 498.75,231.29 500.70,225.37 C501.92,221.67 506.10,219.61 510.64,220.46 C520.75,222.36 531.27,241.83 525.17,247.35 C522.33,249.92 516.88,249.42 512.40,246.17 ZM 291.48 180.46 C291.74,177.69 292.10,174.51 292.50,171.56 C293.30,165.54 293.74,160.40 293.48,160.14 C293.21,159.88 293.00,160.26 293.00,160.99 C293.00,161.85 292.40,161.64 291.25,160.39 C290.21,159.24 288.55,158.61 287.15,158.81 C284.68,159.18 279.64,155.39 280.58,153.87 C280.87,153.40 280.29,153.31 279.30,153.67 C277.89,154.18 278.04,153.70 280.00,151.47 C281.38,149.90 277.77,152.69 272.00,157.68 C266.23,162.66 260.60,167.81 259.50,169.12 L 257.55 171.44 C257.10,171.56 256.38,172.03 255.41,172.78 C261.54,166.93 267.93,161.09 274.63,155.23 C278.56,151.81 282.07,149.00 282.44,149.00 C282.81,149.00 285.89,146.75 289.29,144.00 C294.63,139.68 298.00,137.91 298.00,139.43 C298.00,139.66 297.11,144.39 296.01,149.93 C294.22,159.02 292.34,171.99 291.48,180.46 ZM 468.67 311.33 C469.03,311.70 470.38,312.00 471.67,312.00 C474.44,312.00 474.86,309.00 472.43,306.57 C469.94,304.08 468.00,304.64 468.00,307.83 C468.00,309.39 468.30,310.97 468.67,311.33 ZM 332.44 225.22 C333.29,226.86 333.57,228.95 333.15,230.51 C332.50,232.95 332.32,232.80 329.81,227.69 C327.32,222.61 327.28,222.29 329.09,222.39 C330.16,222.45 331.66,223.72 332.44,225.22 ZM 275.00 170.91 C275.00,171.99 274.62,173.12 274.16,173.40 C272.94,174.15 271.00,171.91 271.00,169.74 C271.00,168.72 270.56,168.16 270.01,168.49 C269.43,168.85 269.29,168.42 269.66,167.44 C270.23,165.97 270.01,165.92 267.90,167.01 C265.87,168.05 265.70,168.03 266.80,166.87 C268.40,165.18 272.96,164.94 272.33,166.58 C272.09,167.22 272.59,168.01 273.44,168.34 C274.30,168.67 275.00,169.82 275.00,170.91 ZM 590.00 449.53 C595.35,448.83 600.12,448.17 604.46,447.53 C601.40,448.24 599.00,449.04 599.00,449.54 C599.00,450.25 599.56,451.06 600.25,451.34 C601.13,451.69 601.15,451.87 600.32,451.92 C599.67,451.96 598.43,451.29 597.57,450.43 C596.21,449.07 594.81,448.99 587.25,449.90 C572.64,451.64 555.38,452.14 537.74,451.50 C555.45,451.74 579.10,450.95 590.00,449.53 ZM 502.62 324.20 C502.91,324.67 505.48,324.75 508.32,324.39 C513.55,323.72 515.78,323.00 512.61,323.00 C511.66,323.00 511.16,322.55 511.50,322.00 C511.86,321.42 510.84,321.00 509.06,321.00 C507.15,321.00 506.09,321.47 506.25,322.25 C506.39,322.96 505.55,323.47 504.30,323.43 C503.09,323.39 502.34,323.73 502.62,324.20 ZM 266.42 165.48 C264.93,166.87 263.21,167.98 262.60,167.96 C261.43,167.91 267.86,161.90 274.50,156.84 C278.35,153.91 278.33,153.94 274.09,157.73 C271.11,160.41 269.95,162.10 270.50,162.99 C271.02,163.84 270.92,164.07 270.22,163.64 C269.63,163.27 267.92,164.10 266.42,165.48 ZM 631.20 476.54 C631.82,477.89 632.73,479.00 633.22,479.00 C633.71,479.00 633.86,478.58 633.54,478.07 C633.23,477.56 633.94,476.46 635.13,475.62 L 637.29 474.11 L 634.70 473.46 C631.00,472.53 629.84,473.55 631.20,476.54 ZM 832.94 682.60 C831.80,687.00 830.61,691.14 829.35,695.17 C829.93,692.79 829.60,692.03 828.50,690.36 C827.28,688.50 827.12,687.48 827.91,686.69 C828.70,685.90 829.00,686.00 829.02,687.05 C829.03,688.28 829.18,688.28 830.00,687.00 C830.86,685.67 830.98,685.67 831.05,687.00 C831.12,688.17 832.05,685.74 832.94,682.60 ZM 151.76 325.10 C137.93,359.79 128.52,396.69 123.48,435.94 C128.68,395.46 137.74,359.72 151.76,325.10 ZM 440.54 300.84 C438.95,301.49 438.51,301.94 439.50,301.97 C441.16,302.02 441.25,302.19 440.00,303.00 C438.03,304.27 435.71,304.27 436.50,303.00 C436.88,302.38 436.98,302.03 435.66,302.28 C437.45,301.74 439.06,301.26 440.54,300.84 ZM 735.89 552.16 C732.81,556.48 734.23,555.55 738.04,550.75 C739.90,548.41 740.63,547.14 739.66,547.91 C738.70,548.69 737.00,550.60 735.89,552.16 ZM 870.14 716.69 C868.87,719.13 867.00,720.62 867.00,719.21 C867.00,718.72 867.97,717.45 869.15,716.40 C871.28,714.51 871.28,714.52 870.14,716.69 ZM 498.39 448.15 C492.57,447.36 486.91,446.44 481.50,445.39 C461.62,441.55 442.42,436.16 424.85,429.68 C447.42,437.94 472.62,444.37 498.39,448.15 ZM 797.35 662.73 C798.48,658.30 799.47,654.32 800.34,650.61 C800.39,650.96 800.45,651.40 800.52,651.93 C800.80,653.81 800.69,655.03 800.30,654.63 C799.98,654.32 798.73,658.00 797.35,662.73 ZM 354.98 236.25 C354.99,236.66 354.55,237.00 354.00,237.00 C353.45,237.00 353.01,235.99 353.02,234.75 C353.03,232.93 353.22,232.79 354.00,234.00 C354.53,234.82 354.98,235.84 354.98,236.25 ZM 871.96 710.52 C864.02,722.44 854.73,734.52 844.65,746.17 C852.45,737.06 859.89,727.50 866.97,717.50 C868.61,715.18 870.38,712.71 871.96,710.52 ZM 794.18 771.09 C802.86,757.08 812.49,738.09 819.78,721.09 C811.44,741.02 801.25,760.35 789.65,778.31 C791.04,776.12 792.54,773.73 794.18,771.09 ZM 865.15 782.06 C841.63,807.24 814.69,829.93 784.26,850.20 C814.28,830.20 841.47,807.28 865.15,782.06 ZM 707.77 528.44 C708.11,528.77 707.57,529.82 706.57,530.77 C704.85,532.42 704.82,532.40 705.96,530.16 C706.62,528.88 707.44,528.10 707.77,528.44 ZM 190.99 249.80 C202.37,232.26 214.91,215.86 229.11,199.94 C223.23,206.63 217.33,213.66 212.37,220.00 C204.77,229.71 197.65,239.65 190.99,249.80 ZM 257.58 171.44 L 262.50 167.50 L 260.62 169.73 C259.58,170.95 258.37,171.73 257.93,171.45 C257.85,171.41 257.73,171.40 257.58,171.44 ZM 864.90 722.57 C865.17,722.83 864.57,723.82 863.58,724.77 C861.86,726.42 861.84,726.40 863.10,724.30 C863.83,723.08 864.64,722.31 864.90,722.57 ZM 589.50 488.03 C585.56,488.45 579.12,488.80 571.69,489.06 C579.12,488.80 585.56,488.45 589.50,488.03 C596.93,487.23 610.56,485.15 620.62,483.39 C610.38,485.35 599.98,486.91 589.50,488.03 ZM 665.74 471.64 C664.24,472.15 662.73,472.64 661.21,473.12 C662.25,472.62 663.00,472.15 663.00,471.89 C663.00,471.50 664.01,471.36 665.25,471.58 C665.46,471.62 665.63,471.64 665.74,471.64 ZM 633.68 670.02 C623.75,675.27 613.84,677.40 601.00,677.32 C613.27,677.39 623.65,675.18 633.68,670.02 ZM 832.66 676.75 C832.94,677.44 832.94,678.56 832.66,679.25 C832.38,679.94 832.16,679.38 832.16,678.00 C832.16,676.62 832.38,676.06 832.66,676.75 ZM 916.28 714.77 C915.50,716.05 914.71,717.32 913.92,718.59 C913.88,718.55 913.83,718.50 913.77,718.44 C913.46,718.13 914.29,716.80 915.61,715.48 C915.85,715.24 916.08,715.00 916.28,714.77 ZM 655.72 653.73 C652.79,656.68 650.26,658.83 647.45,660.96 C650.06,658.88 652.70,656.58 655.39,654.05 C655.49,653.95 655.60,653.84 655.72,653.73 ZM 368.44 322.27 C364.50,322.88 361.29,322.99 357.98,322.79 C361.43,322.91 365.00,322.74 368.44,322.27 ZM 670.89 636.29 C665.66,642.72 661.76,647.30 658.49,650.84 C661.45,647.60 665.63,642.70 670.89,636.29 ZM 548.63 877.32 C549.36,877.72 549.90,877.98 550.05,877.98 C550.26,877.99 551.38,877.40 552.87,876.52 L 550.11 878.23 ZM 373.77 245.01 C373.76,245.04 373.74,245.08 373.73,245.11 C373.34,246.04 372.19,248.04 370.62,250.55 C371.97,248.36 373.03,246.49 373.77,245.01 ZM 556.66 874.18 C558.75,872.93 560.57,872.00 561.00,872.00 C561.51,872.00 566.19,867.92 571.40,862.94 C566.19,867.92 561.52,872.00 561.03,872.00 C560.63,872.00 558.81,872.92 556.66,874.18 ZM 769.57 812.75 C764.91,815.87 761.56,817.90 761.30,817.63 C761.55,817.88 764.95,815.82 769.57,812.75 ZM 705.07 529.66 C704.92,529.86 704.77,530.06 704.61,530.26 C703.57,531.62 702.25,533.33 700.84,535.17 C701.78,533.94 702.61,532.85 703.26,532.00 C703.80,531.28 704.42,530.48 705.07,529.66 ZM 543.00 874.32 C543.00,874.59 540.64,872.61 537.75,869.92 C540.64,872.61 543.00,874.58 543.00,874.30 C543.00,874.10 543.81,874.44 544.95,875.10 C543.80,874.46 543.00,874.13 543.00,874.32 ZM 339.72 318.82 C338.25,318.04 337.16,317.16 336.43,316.18 C337.16,317.15 338.28,318.03 339.72,318.82 ZM 525.68 859.38 C524.69,858.30 523.99,857.42 523.98,857.15 C523.99,857.38 524.67,858.26 525.68,859.38 ZM 529.62 863.32 C530.74,864.33 531.62,865.01 531.85,865.02 C531.58,865.01 530.70,864.31 529.62,863.32 ZM 793.01 681.34 C793.01,681.31 793.01,681.28 793.01,681.25 C793.01,681.16 793.03,681.01 793.06,680.81 C793.05,680.99 793.03,681.17 793.01,681.34 ZM 335.46 314.04 C335.56,314.54 335.73,314.99 335.99,315.48 C335.73,315.00 335.55,314.55 335.46,314.04 Z" fill="url(#frogGrad)"/>
<path d="M 521.50 488.96 C462.75,483.04 421.06,472.01 377.00,450.73 C355.45,440.32 335.12,425.64 320.74,410.10 C300.50,388.20 290.70,360.49 292.29,329.61 C293.63,303.64 299.77,287.87 320.95,256.00 C325.16,249.68 329.66,242.61 330.95,240.31 L 333.31 236.11 L 329.63 229.12 C324.93,220.16 321.00,209.73 321.00,206.18 C321.00,204.65 320.59,202.97 320.08,202.45 C319.58,201.93 318.96,199.48 318.72,197.00 C318.48,194.52 318.47,193.51 318.70,194.75 C318.95,196.04 319.86,197.00 320.84,197.00 C322.85,197.00 326.00,200.37 326.00,202.51 C326.00,204.39 328.04,204.42 330.56,202.58 C334.27,199.87 337.00,206.09 333.41,209.08 C332.15,210.12 331.92,211.71 332.32,216.66 C332.60,220.10 333.10,223.36 333.44,223.90 C333.77,224.44 337.29,224.86 341.25,224.82 C348.66,224.75 350.89,223.63 350.97,219.94 C350.99,219.08 351.60,217.56 352.33,216.56 C353.62,214.80 353.76,214.80 356.54,216.62 C358.13,217.65 359.08,217.94 358.65,217.25 C358.13,216.41 358.55,216.00 359.94,216.00 C361.07,216.00 362.01,215.44 362.02,214.75 C362.03,213.89 362.31,213.95 362.95,214.95 C363.49,215.80 363.50,217.07 362.97,218.06 C362.47,218.98 362.35,220.02 362.70,220.37 C363.05,220.72 362.81,221.00 362.17,221.00 C361.52,221.00 361.00,220.55 361.00,220.00 C361.00,219.45 360.49,219.00 359.88,219.00 C359.11,219.00 359.16,219.49 360.03,220.53 C360.73,221.38 361.80,221.89 362.40,221.67 C363.01,221.45 364.26,221.66 365.19,222.14 C366.51,222.81 366.79,224.04 366.49,227.73 C366.25,230.68 366.55,232.72 367.30,233.18 C368.15,233.71 367.97,234.30 366.65,235.26 C364.98,236.49 364.96,236.72 366.43,237.95 C367.32,238.68 368.32,239.01 368.65,238.68 C369.20,238.13 373.72,240.09 374.78,241.17 C374.59,242.53 374.26,243.82 373.77,245.01 C373.03,246.49 371.97,248.36 370.62,250.55 C368.88,253.35 366.63,256.78 364.35,260.08 C355.31,273.15 344.24,290.63 341.28,296.50 C340.17,298.70 338.26,303.36 337.03,306.87 C335.65,310.79 335.19,312.60 335.46,314.04 C335.55,314.55 335.73,315.00 335.99,315.48 C335.99,315.48 335.99,315.49 336.00,315.50 L 336.01 315.52 C336.13,315.74 336.27,315.96 336.43,316.18 L 336.44 316.18 C337.16,317.16 338.25,318.04 339.72,318.82 L 339.72 318.82 C343.89,321.10 350.69,322.55 357.98,322.79 C361.29,322.99 364.50,322.88 368.44,322.27 C369.15,322.17 369.86,322.06 370.57,321.93 C377.83,320.62 387.27,317.84 414.50,308.99 C423.87,305.95 430.50,303.84 435.66,302.28 C436.98,302.03 436.88,302.38 436.50,303.00 C435.71,304.27 438.03,304.27 440.00,303.00 C441.25,302.19 441.16,302.02 439.50,301.97 C438.51,301.94 438.95,301.49 440.54,300.84 C442.92,300.16 444.97,299.62 446.91,299.14 C446.99,299.26 446.76,299.50 446.17,299.87 C445.23,300.47 445.77,300.90 448.00,301.35 C450.05,301.76 451.63,301.51 452.49,300.65 C453.27,299.87 455.11,299.51 456.91,299.77 C459.37,300.14 460.00,300.71 460.00,302.61 C460.00,304.11 459.42,305.00 458.44,305.00 C457.56,305.00 457.18,304.52 457.57,303.89 C458.04,303.13 457.52,303.03 455.88,303.58 C454.57,304.02 452.60,304.44 451.50,304.50 C450.40,304.57 449.39,304.94 449.25,305.32 C448.46,307.47 449.58,308.00 454.95,308.00 L 460.90 308.00 L 463.11 312.81 C465.05,317.04 465.99,317.90 470.89,319.90 L 476.47 322.17 L 477.86 320.09 C479.58,317.50 482.71,317.41 485.44,319.86 C488.27,322.42 492.84,323.80 497.01,323.36 C499.77,323.06 500.08,323.18 498.50,323.92 C496.63,324.80 496.66,324.87 499.00,325.05 C501.03,325.20 501.12,325.31 499.50,325.64 C480.77,329.51 467.32,332.97 451.50,338.01 C395.78,355.75 390.54,357.25 378.11,359.05 C364.72,361.00 345.91,359.40 335.75,355.46 C330.89,353.58 336.67,368.05 345.45,379.73 C359.79,398.80 389.00,416.55 424.85,429.68 C442.42,436.16 461.62,441.55 481.50,445.39 C486.91,446.44 492.57,447.36 498.39,448.15 C506.72,449.37 515.12,450.32 523.50,450.95 C527.30,451.24 532.23,451.42 537.74,451.50 C555.38,452.14 572.64,451.64 587.25,449.90 C594.81,448.99 596.21,449.07 597.57,450.43 C598.43,451.29 599.67,451.96 600.32,451.92 C601.15,451.87 601.13,451.69 600.25,451.34 C599.56,451.06 599.00,450.25 599.00,449.54 C599.00,449.04 601.40,448.24 604.46,447.53 C607.89,447.03 611.05,446.53 614.01,446.03 C614.37,446.01 614.72,446.00 615.04,446.00 C616.48,446.00 616.20,448.99 614.75,449.08 C614.06,449.13 612.51,449.28 611.30,449.41 C610.08,449.55 609.32,449.29 609.60,448.84 C610.09,448.04 600.91,448.75 600.09,449.58 C599.86,449.81 600.98,450.03 602.58,450.07 C605.12,450.13 605.24,450.25 603.50,451.00 C601.67,451.78 601.72,451.87 604.03,451.93 C606.04,451.99 606.61,452.56 606.79,454.69 C607.08,458.28 608.43,458.97 615.19,458.98 C618.42,458.99 621.19,459.50 621.60,460.16 C622.00,460.80 622.51,464.69 622.74,468.81 C623.20,477.13 624.59,479.50 628.55,478.75 C630.54,478.36 630.80,478.54 629.89,479.64 C628.96,480.75 629.36,480.91 632.13,480.50 C635.05,480.07 635.35,480.04 633.38,480.70 C629.16,481.66 624.91,482.56 620.62,483.39 C610.56,485.15 596.93,487.23 589.50,488.03 C585.56,488.45 579.12,488.80 571.69,489.06 C571.11,489.08 570.52,489.10 569.92,489.12 C568.29,489.17 566.62,489.21 564.92,489.26 C547.93,489.69 528.42,489.66 521.50,488.96 ZM 832.94 682.60 C832.05,685.74 831.12,688.17 831.05,687.00 C830.98,685.67 830.86,685.67 830.00,687.00 C829.18,688.28 829.03,688.28 829.02,687.05 C829.00,686.00 828.70,685.90 827.91,686.69 C827.12,687.48 827.28,688.50 828.50,690.36 C829.60,692.03 829.93,692.79 829.35,695.17 C826.81,703.31 823.95,711.03 820.37,719.68 C820.18,720.15 819.98,720.62 819.78,721.09 L 819.78 721.10 C812.49,738.09 802.86,757.08 794.18,771.09 C792.54,773.73 791.04,776.12 789.65,778.31 C783.38,788.03 776.70,797.35 769.69,806.15 C764.84,812.23 761.06,817.40 761.30,817.63 C761.55,817.88 764.94,815.82 769.56,812.76 L 769.57 812.75 C775.73,808.66 784.07,802.78 790.00,798.20 C809.81,782.92 828.04,765.57 844.65,746.17 C854.73,734.52 864.02,722.44 871.96,710.52 C873.76,708.04 875.31,705.93 876.12,704.87 C876.33,704.60 876.54,704.31 876.76,704.01 C877.11,704.15 876.23,705.69 873.89,709.08 C872.82,710.63 872.33,712.56 872.68,713.88 C873.06,715.35 872.66,716.53 871.48,717.39 C870.50,718.11 870.01,719.21 870.40,719.84 C870.85,720.57 870.55,720.77 869.55,720.38 C868.62,720.02 867.99,720.33 867.98,721.14 C867.97,722.29 867.83,722.29 867.11,721.14 C866.51,720.20 866.04,720.12 865.57,720.89 C864.92,721.94 866.10,722.40 868.64,722.10 C869.26,722.03 870.04,722.67 870.37,723.53 C870.71,724.40 870.58,724.86 870.09,724.56 C869.61,724.26 868.97,724.64 868.67,725.42 C868.28,726.45 869.52,727.10 873.32,727.86 C882.72,729.74 884.48,730.25 886.00,731.53 C886.83,732.22 888.38,732.96 889.46,733.15 C890.55,733.35 892.40,734.96 893.59,736.72 C894.78,738.48 896.03,739.64 896.37,739.29 C897.61,738.06 896.97,740.12 895.29,742.79 L 893.58 745.50 L 895.96 743.50 C897.38,742.31 897.89,742.11 897.41,743.02 C887.48,756.65 876.73,769.66 865.15,782.06 C841.47,807.28 814.28,830.21 784.26,850.20 C757.42,868.09 718.19,887.52 689.50,897.14 C655.68,908.49 626.21,915.07 594.00,918.49 C591.00,918.81 586.88,919.12 582.13,919.39 C582.23,919.28 581.73,919.16 580.50,919.05 C578.85,918.90 582.45,918.15 588.50,917.38 C594.55,916.61 601.53,915.33 604.00,914.53 C606.47,913.74 610.53,912.85 613.00,912.56 C617.22,912.07 623.86,910.99 632.00,909.46 C633.92,909.10 637.75,907.98 640.50,906.97 C647.27,904.47 655.58,902.00 657.20,902.00 C657.92,902.00 659.07,901.11 659.75,900.02 C660.84,898.28 660.64,897.87 657.99,896.50 C656.35,895.65 655.00,894.20 655.00,893.29 C655.00,891.51 651.24,887.00 649.76,887.00 C649.27,887.00 647.41,885.89 645.63,884.53 C643.85,883.17 640.39,881.11 637.94,879.95 C635.50,878.80 632.38,877.19 631.00,876.39 C629.45,875.48 627.00,875.10 624.54,875.39 C622.36,875.65 619.32,875.61 617.77,875.30 C615.18,874.79 615.10,874.64 616.73,873.37 C617.78,872.55 618.15,872.24 617.85,872.27 C622.55,870.96 632.76,867.23 638.70,864.49 C657.00,856.07 681.09,839.84 700.42,822.92 C737.81,790.17 769.35,744.77 785.43,700.50 C787.43,695.00 789.58,689.38 790.21,688.00 C790.83,686.62 791.25,684.94 791.13,684.25 C791.01,683.56 791.38,683.00 791.96,683.00 C792.51,683.00 792.98,682.26 793.01,681.34 C793.03,681.17 793.05,680.99 793.06,680.81 C793.36,678.80 795.09,671.48 797.15,663.50 C797.21,663.24 797.28,662.98 797.35,662.73 C798.73,658.00 799.98,654.32 800.30,654.63 C800.69,655.03 800.80,653.81 800.52,651.93 C800.45,651.40 800.39,650.96 800.34,650.61 C800.40,650.38 800.45,650.15 800.51,649.91 C800.61,650.15 800.74,650.52 800.91,651.00 C801.40,652.38 801.85,653.05 801.92,652.50 C801.98,651.95 802.60,652.62 803.29,654.00 C804.28,655.97 805.44,656.56 808.72,656.80 C812.89,657.11 812.89,657.12 813.48,661.80 C814.30,668.44 815.44,671.55 816.93,671.21 C818.68,670.82 821.00,672.89 821.02,674.87 C821.04,677.49 822.47,679.04 825.33,679.56 C827.08,679.87 828.00,679.60 828.00,678.76 C828.00,677.20 831.74,674.72 832.96,675.47 C833.44,675.77 834.06,675.45 834.35,674.76 C834.63,674.07 834.60,675.05 834.27,676.95 C834.15,677.65 833.99,678.40 833.82,679.17 C833.53,680.33 833.24,681.47 832.94,682.60 ZM 655.72 653.73 C655.60,653.84 655.49,653.95 655.39,654.05 C652.70,656.58 650.06,658.88 647.45,660.96 C646.03,662.05 644.53,663.13 642.87,664.30 C639.75,666.52 636.71,668.41 633.68,670.02 C623.65,675.18 613.27,677.39 601.00,677.32 C591.33,677.27 588.15,676.82 581.00,674.53 C566.84,669.97 553.06,660.92 543.35,649.78 C537.54,643.12 518.66,614.11 487.07,563.28 C478.31,549.19 472.21,542.66 463.83,538.41 C459.92,536.43 457.56,536.00 450.69,536.00 C443.37,536.00 441.58,536.38 436.41,539.00 C425.27,544.65 424.43,545.64 374.06,612.50 C367.84,620.75 361.50,629.08 359.97,631.00 C359.27,631.88 357.79,633.80 355.92,636.23 C355.96,636.08 355.68,636.16 355.12,636.48 C354.18,637.03 353.89,636.84 354.20,635.89 C354.46,635.13 355.17,634.50 355.78,634.50 C356.40,634.50 357.48,633.85 358.20,633.05 C359.32,631.79 359.26,631.78 357.75,632.92 C355.34,634.74 355.56,633.74 358.50,629.40 C359.88,627.38 361.00,624.86 361.00,623.80 C361.00,622.75 363.25,619.73 366.00,617.09 C368.75,614.46 371.00,611.47 371.00,610.46 C371.00,609.45 371.98,607.59 373.17,606.32 C375.81,603.50 375.98,598.74 373.53,596.03 C372.05,594.40 371.95,593.76 372.98,592.52 C373.68,591.68 375.03,591.00 376.00,591.00 C377.99,591.00 380.32,593.34 379.32,594.34 C378.96,594.70 379.17,595.00 379.79,595.00 C381.27,595.00 386.09,589.78 385.70,588.60 C385.53,588.10 384.29,587.54 382.95,587.37 C377.76,586.72 369.43,584.78 368.00,583.90 C367.17,583.39 365.20,582.11 363.61,581.06 C360.76,579.18 360.68,579.18 356.36,581.28 C353.96,582.44 352.00,583.74 352.00,584.17 C352.00,584.98 345.28,593.10 339.73,599.00 C337.92,600.92 332.91,606.66 328.60,611.74 C324.29,616.82 320.42,620.76 320.00,620.50 C319.71,620.32 318.72,621.12 317.49,622.44 C327.87,609.09 337.77,596.18 350.29,579.70 C354.81,573.76 360.08,567.06 362.00,564.81 C363.92,562.55 366.17,559.68 367.00,558.43 C369.11,555.23 379.98,541.16 388.58,530.50 C401.00,515.11 412.90,506.23 429.13,500.24 C435.79,497.78 437.79,497.52 450.00,497.51 C466.02,497.50 472.62,499.19 485.94,506.72 C501.23,515.37 508.83,524.12 529.57,557.00 C567.57,617.21 571.74,623.48 577.07,628.47 C584.70,635.61 591.74,638.50 601.50,638.50 C608.41,638.50 610.41,638.07 616.18,635.34 C624.82,631.24 629.95,626.42 641.26,611.73 C650.07,600.30 652.27,597.48 665.00,581.29 C668.03,577.45 674.10,569.65 678.50,563.97 C682.90,558.30 689.33,550.02 692.79,545.57 C695.28,542.38 698.42,538.32 700.84,535.17 L 700.85 535.16 C702.26,533.33 703.57,531.62 704.61,530.26 C704.77,530.06 704.92,529.86 705.07,529.66 C707.14,527.06 709.53,524.19 711.06,522.52 C711.16,522.42 711.25,522.34 711.31,522.31 C711.95,521.92 711.43,522.91 710.16,524.52 C708.89,526.14 708.33,527.61 708.90,527.80 C709.55,528.02 709.33,529.09 708.35,530.59 C706.84,532.90 706.85,533.00 708.62,532.33 C710.26,531.71 710.33,531.83 709.16,533.27 C708.00,534.71 708.14,535.00 710.31,535.54 C714.30,536.54 717.52,535.72 717.36,533.75 C717.28,532.79 717.57,532.00 717.99,532.00 C718.42,532.00 719.00,531.10 719.29,530.00 C720.14,526.74 722.55,527.69 727.05,533.06 C731.43,538.29 731.73,539.53 730.50,547.50 L 729.88 551.50 L 732.86 548.01 C734.50,546.08 736.18,544.85 736.59,545.26 C737.00,545.67 736.81,546.00 736.17,546.00 C735.53,546.00 735.00,546.48 735.00,547.06 C735.00,547.64 735.45,547.84 736.00,547.50 C737.57,546.53 737.16,548.23 735.05,551.44 C733.99,553.05 733.34,554.74 733.61,555.18 C733.88,555.62 729.47,561.91 723.80,569.16 C719.55,574.59 714.36,581.25 710.64,586.03 C707.70,589.77 703.24,595.44 698.77,601.12 C686.35,616.94 677.54,628.11 670.89,636.29 C665.63,642.70 661.45,647.60 658.49,650.84 C657.52,651.89 656.60,652.84 655.72,653.73 ZM 291.48 180.46 C291.17,183.44 291.00,185.85 291.00,187.36 C291.00,191.49 290.59,192.02 276.25,206.56 C240.22,243.08 214.78,279.85 194.30,325.00 C176.42,364.40 165.37,405.67 160.85,450.00 C159.29,465.32 159.18,496.97 160.35,518.03 C159.87,511.94 159.50,505.77 159.24,499.50 C158.54,482.43 158.47,481.96 157.87,490.50 C157.53,495.45 157.40,489.75 157.60,477.83 C157.80,465.92 158.41,453.09 158.96,449.33 C159.51,445.58 160.19,438.90 160.47,434.50 C161.55,417.46 162.15,412.35 163.55,408.07 C164.35,405.64 165.00,401.49 165.00,398.86 C165.00,396.22 165.63,392.14 166.41,389.78 C167.18,387.43 168.60,381.75 169.57,377.17 C171.31,368.90 171.31,368.82 169.15,364.36 C167.59,361.17 165.97,359.47 163.46,358.42 C159.61,356.81 152.75,350.55 151.68,347.67 C150.47,344.42 148.57,346.49 146.51,353.29 C145.40,356.94 143.94,360.48 143.25,361.16 C142.56,361.84 142.00,363.01 142.00,363.76 C142.00,364.51 139.95,371.28 137.44,378.81 C134.90,386.46 132.64,395.37 132.32,399.00 C132.00,402.58 130.96,407.52 130.01,410.00 C127.83,415.63 125.38,429.03 123.77,444.00 C122.85,452.68 122.39,454.64 121.93,452.00 C121.60,450.08 121.44,453.67 121.59,460.00 C121.75,466.75 121.58,469.64 121.18,467.00 C121.01,465.87 120.85,467.30 120.72,470.55 C120.85,459.03 121.09,449.66 121.41,449.15 C121.67,448.73 122.60,442.78 123.48,435.94 C128.68,395.46 137.74,359.72 151.76,325.10 C156.36,313.74 161.50,302.49 167.21,291.25 C174.63,276.62 182.49,262.89 190.99,249.80 C197.65,239.65 204.77,229.71 212.37,220.00 C217.33,213.66 223.23,206.63 229.11,199.94 C237.30,190.76 246.03,181.75 255.41,172.78 C256.38,172.03 257.10,171.56 257.55,171.44 L 259.50 169.12 C260.60,167.81 266.23,162.66 272.00,157.68 C277.77,152.69 281.38,149.90 280.00,151.47 C278.04,153.70 277.89,154.18 279.30,153.67 C280.29,153.31 280.87,153.40 280.58,153.87 C279.64,155.39 284.68,159.18 287.15,158.81 C288.55,158.61 290.21,159.24 291.25,160.39 C292.40,161.64 293.00,161.85 293.00,160.99 C293.00,160.26 293.21,159.88 293.48,160.14 C293.74,160.40 293.30,165.54 292.50,171.56 C292.10,174.51 291.74,177.69 291.48,180.46 ZM 615.47 872.21 C615.23,871.46 615.28,869.82 615.49,866.63 C615.73,863.02 615.54,859.83 615.07,859.54 C613.76,858.73 617.47,847.85 619.66,846.07 C620.88,845.08 621.62,843.19 621.66,840.93 C621.76,835.91 623.63,832.75 626.05,833.52 C627.47,833.97 628.29,833.47 629.12,831.63 C629.75,830.25 629.99,828.41 629.65,827.53 C629.10,826.09 628.81,826.08 626.70,827.46 C624.49,828.91 624.25,828.83 622.10,825.93 C620.02,823.11 619.41,822.88 614.60,823.10 C611.73,823.24 608.89,823.05 608.30,822.68 C606.89,821.81 605.39,823.89 605.23,826.92 C605.16,828.26 603.97,830.28 602.60,831.42 C601.23,832.57 598.95,835.71 597.54,838.41 C596.14,841.11 593.52,844.32 591.73,845.54 C589.94,846.76 587.84,848.93 587.07,850.38 C586.29,851.82 585.07,853.00 584.34,853.00 C583.62,853.00 582.34,854.64 581.50,856.65 C580.66,858.66 579.68,860.02 579.33,859.66 C578.97,859.31 578.13,859.48 577.45,860.04 C576.77,860.61 575.62,860.94 574.90,860.79 C574.18,860.63 573.53,861.17 573.45,862.00 C573.37,862.83 573.24,864.26 573.15,865.18 C573.07,866.11 572.04,867.17 570.87,867.54 C569.69,867.91 566.21,870.13 563.12,872.47 C560.03,874.81 556.38,877.06 555.00,877.45 C553.03,878.02 553.30,877.62 556.25,875.55 C560.14,872.83 560.82,871.95 558.70,873.04 C559.88,872.40 560.77,872.00 561.03,872.00 C561.52,872.00 566.19,867.92 571.40,862.94 C581.16,853.61 592.61,837.95 598.78,825.50 C602.94,817.11 608.44,802.05 611.02,792.00 C615.62,774.10 616.15,768.66 616.69,733.36 L 617.21 699.23 L 622.29 698.56 C629.01,697.66 641.04,692.95 649.26,688.00 C652.91,685.80 656.19,684.00 656.56,684.00 C656.92,684.00 657.00,701.89 656.72,723.75 C656.29,758.18 655.94,765.31 654.05,777.00 C648.28,812.78 635.73,844.69 618.29,867.91 C616.92,869.73 615.83,871.41 615.47,872.21 ZM 484.55 766.67 C484.44,766.96 484.29,767.58 484.09,768.50 L 483.41 771.50 L 482.62 767.50 C482.19,765.30 481.45,754.28 480.99,743.00 C479.68,711.29 478.11,683.75 477.46,681.05 C477.13,679.71 475.55,677.11 473.95,675.29 C472.34,673.46 470.74,670.73 470.38,669.23 C470.02,667.73 469.24,665.60 468.65,664.50 C468.06,663.40 467.71,660.03 467.86,657.00 C468.18,650.39 466.26,646.71 463.61,648.91 C461.58,650.59 461.56,652.39 463.55,654.04 C464.55,654.87 464.99,656.59 464.80,658.91 C464.55,661.95 464.10,662.55 461.86,662.81 C458.74,663.17 455.00,658.74 455.00,654.70 C455.00,652.51 453.40,651.00 451.08,651.00 C449.34,651.00 448.00,659.46 448.00,670.41 C448.00,676.83 447.34,688.25 446.52,695.79 C444.94,710.43 444.76,770.99 446.30,771.00 C446.73,771.00 446.80,772.58 446.43,774.50 C446.85,772.21 446.65,771.05 445.78,770.76 C444.75,770.42 444.43,749.40 444.15,665.17 L 443.81 560.00 L 448.11 560.00 C452.08,560.00 452.89,560.49 458.46,566.25 C461.78,569.69 468.66,578.99 473.75,586.93 L 483.00 601.36 L 483.00 677.99 C483.00,731.99 483.16,753.15 484.55,766.67 ZM 294.52 601.68 L 294.08 604.00 C293.47,607.27 293.37,607.10 292.69,601.48 C291.78,594.06 291.73,556.58 292.61,545.00 C292.96,540.33 293.38,532.67 293.52,528.00 C293.88,516.82 293.88,516.81 294.75,517.34 C295.66,517.90 296.10,512.41 295.41,509.16 C295.09,507.64 294.41,507.01 293.49,507.37 C292.55,507.73 291.48,506.71 290.41,504.46 C289.51,502.56 288.15,501.00 287.39,501.00 C285.68,501.00 285.60,499.80 287.20,498.20 C288.03,497.37 288.06,497.00 287.28,497.00 C286.67,497.00 285.99,497.53 285.77,498.18 C285.55,498.83 284.63,499.07 283.70,498.72 C282.32,498.19 282.21,497.59 283.06,495.35 C283.79,493.43 283.76,491.83 282.95,489.89 C281.18,485.60 278.91,485.37 275.75,489.14 C274.24,490.95 273.00,492.05 273.00,491.59 C273.00,491.13 272.33,491.32 271.50,492.00 C270.46,492.87 270.00,495.17 270.00,499.55 C270.00,503.77 269.51,506.34 268.53,507.33 C267.72,508.14 266.63,510.53 266.12,512.65 C265.60,514.77 264.29,518.97 263.21,522.00 C262.13,525.03 260.72,531.33 260.09,536.00 C259.45,540.67 258.49,547.65 257.95,551.50 C257.41,555.35 256.64,562.33 256.24,567.00 L 255.51 575.50 L 254.84 570.00 C254.83,569.89 254.82,569.80 254.80,569.72 C254.98,563.19 255.30,557.36 255.79,553.00 C259.53,519.51 262.88,503.51 272.50,473.00 C279.75,450.02 292.21,419.52 295.90,415.72 C296.32,415.29 299.53,418.22 303.05,422.22 C306.56,426.22 312.77,432.97 316.85,437.20 C322.07,442.64 324.10,445.44 323.73,446.70 C323.44,447.69 321.10,453.45 318.54,459.50 C307.78,484.94 299.52,516.12 295.36,547.00 C293.62,559.90 293.26,587.62 294.52,601.68 ZM 501.23 822.66 C497.83,815.53 494.51,807.50 492.96,802.30 C492.28,799.99 491.24,798.19 490.65,798.30 C488.87,798.64 485.75,787.91 485.46,780.50 C485.34,777.32 485.17,773.38 485.05,770.87 C485.64,775.24 486.42,778.98 487.41,783.27 C490.29,795.67 495.68,810.80 501.23,822.66 ZM 656.00 474.00 C657.24,473.20 657.16,473.03 655.50,473.00 C654.28,472.98 653.94,472.68 654.63,472.23 C655.26,471.83 655.94,470.60 656.14,469.50 C656.59,467.16 661.00,466.05 661.00,468.29 C661.00,469.07 662.46,470.22 664.25,470.84 C665.28,471.20 665.86,471.46 665.94,471.58 L 665.74 471.64 C665.63,471.64 665.46,471.62 665.25,471.58 C664.01,471.36 663.00,471.50 663.00,471.89 C663.00,472.15 662.25,472.62 661.21,473.12 C659.23,473.75 657.25,474.36 655.25,474.95 C655.01,474.84 655.30,474.45 656.00,474.00 ZM 338.23 658.00 C337.55,659.10 337.14,660.00 337.34,660.00 C337.47,660.00 337.96,659.59 338.57,658.98 C334.66,664.10 330.48,669.55 327.00,674.09 C320.12,683.04 310.45,695.65 305.50,702.11 C290.31,721.92 282.47,732.14 275.37,741.35 C278.77,736.93 282.95,731.48 286.40,727.00 C291.69,720.12 299.97,709.33 304.81,703.00 C309.64,696.67 318.90,684.60 325.38,676.16 C331.86,667.73 336.91,660.57 336.60,660.26 C336.03,659.70 343.59,648.42 347.30,644.28 C348.39,643.06 349.62,642.26 350.01,642.51 C350.30,642.69 351.01,642.33 351.77,641.66 C350.64,643.13 349.48,644.65 348.35,646.15 C346.38,648.75 343.63,652.35 340.60,656.32 C340.64,656.12 340.58,656.00 340.40,656.00 C339.89,656.00 338.92,656.90 338.23,658.00 ZM 468.67 311.33 C468.30,310.97 468.00,309.39 468.00,307.83 C468.00,304.64 469.94,304.08 472.43,306.57 C474.86,309.00 474.44,312.00 471.67,312.00 C470.38,312.00 469.03,311.70 468.67,311.33 ZM 312.99 628.23 L 315.92 625.00 C321.12,619.26 321.21,620.76 316.06,627.41 C311.48,633.33 304.56,641.08 305.49,639.25 C305.83,638.56 305.91,638.00 305.65,638.00 C305.52,638.00 304.46,639.23 302.85,641.18 C304.13,639.56 305.38,637.97 306.61,636.39 C306.53,636.65 306.97,636.33 307.91,635.51 C310.08,633.62 312.54,630.00 311.65,630.00 C311.64,630.00 311.62,630.01 311.59,630.02 C312.06,629.42 312.53,628.82 312.99,628.23 ZM 260.58 649.02 C260.44,648.52 260.32,648.01 260.20,647.51 C260.46,648.31 260.78,648.88 261.13,649.10 C264.97,651.53 267.60,650.10 277.28,637.65 C269.98,647.21 263.19,655.98 262.94,655.98 C262.64,655.99 261.57,652.86 260.58,649.02 ZM 332.44 225.22 C331.66,223.72 330.16,222.45 329.09,222.39 C327.28,222.29 327.32,222.61 329.81,227.69 C332.32,232.80 332.50,232.95 333.15,230.51 C333.57,228.95 333.29,226.86 332.44,225.22 ZM 275.00 170.91 C275.00,169.82 274.30,168.67 273.44,168.34 C272.59,168.01 272.09,167.22 272.33,166.58 C272.96,164.94 268.40,165.18 266.80,166.87 C265.70,168.03 265.87,168.05 267.90,167.01 C270.01,165.92 270.23,165.97 269.66,167.44 C269.29,168.42 269.43,168.85 270.01,168.49 C270.56,168.16 271.00,168.72 271.00,169.74 C271.00,171.91 272.94,174.15 274.16,173.40 C274.62,173.12 275.00,171.99 275.00,170.91 ZM 912.08 718.07 C910.87,717.31 910.91,716.78 912.37,714.55 C913.32,713.11 914.52,712.20 915.04,712.53 C915.57,712.85 916.00,712.64 916.00,712.06 C916.00,711.48 916.45,711.00 917.00,711.00 C917.75,711.00 918.05,711.38 917.95,712.01 C917.40,712.93 916.84,713.85 916.28,714.77 C916.08,715.00 915.85,715.24 915.61,715.48 C914.29,716.80 913.46,718.13 913.77,718.44 C913.83,718.50 913.88,718.55 913.92,718.59 L 913.72 718.92 C913.36,718.81 912.79,718.52 912.08,718.07 ZM 502.62 324.20 C502.34,323.73 503.09,323.39 504.30,323.43 C505.55,323.47 506.39,322.96 506.25,322.25 C506.09,321.47 507.15,321.00 509.06,321.00 C510.84,321.00 511.86,321.42 511.50,322.00 C511.16,322.55 511.66,323.00 512.61,323.00 C515.78,323.00 513.55,323.72 508.32,324.39 C505.48,324.75 502.91,324.67 502.62,324.20 ZM 618.00 445.90 C617.73,445.71 617.54,445.55 617.42,445.44 C617.74,445.38 618.06,445.32 618.38,445.26 C618.56,445.30 618.77,445.35 619.00,445.40 C620.38,445.71 622.30,445.98 623.29,445.99 C624.76,446.00 624.88,446.35 624.00,448.00 C622.73,450.37 620.72,450.58 619.00,448.50 C618.32,447.67 618.15,446.99 618.63,446.98 C619.11,446.98 618.83,446.49 618.00,445.90 ZM 266.42 165.48 C267.92,164.10 269.63,163.27 270.22,163.64 C270.92,164.07 271.02,163.84 270.50,162.99 C269.95,162.10 271.11,160.41 274.09,157.73 C278.33,153.94 278.35,153.91 274.50,156.84 C267.86,161.90 261.43,167.91 262.60,167.96 C263.21,167.98 264.93,166.87 266.42,165.48 ZM 631.20 476.54 C629.84,473.55 631.00,472.53 634.70,473.46 L 637.29 474.11 L 635.13 475.62 C633.94,476.46 633.23,477.56 633.54,478.07 C633.86,478.58 633.71,479.00 633.22,479.00 C632.73,479.00 631.82,477.89 631.20,476.54 ZM 368.41 577.86 C368.77,578.44 369.72,578.71 370.53,578.46 C373.44,577.55 374.64,577.21 374.68,576.77 C374.70,576.47 374.21,576.13 373.36,575.54 C373.27,575.48 373.18,575.41 373.08,575.34 C371.05,573.92 370.66,573.91 369.29,575.28 C368.45,576.12 368.06,577.28 368.41,577.86 ZM 329.13 732.79 C323.69,722.84 323.19,722.44 320.30,722.49 C318.31,722.53 316.44,723.77 312.26,729.00 C317.56,721.97 320.18,719.00 320.98,719.00 C321.44,719.00 324.61,724.26 328.01,730.68 C328.39,731.40 328.76,732.10 329.13,732.79 ZM 834.98 670.42 C834.97,668.17 834.75,667.84 834.00,669.00 C833.24,670.17 833.03,669.91 833.02,667.81 C833.01,666.33 833.45,664.84 834.00,664.50 C834.55,664.16 835.01,664.70 835.02,665.69 C835.03,667.24 835.18,667.28 836.05,666.00 C836.67,665.09 836.84,665.46 836.58,667.36 C836.17,669.23 835.76,671.04 835.35,672.80 C835.13,673.01 834.99,672.23 834.98,670.42 ZM 454.00 909.52 C420.25,901.89 389.84,890.45 356.50,873.51 C388.94,889.99 420.57,901.76 454.00,909.52 ZM 735.89 552.16 C737.00,550.60 738.70,548.69 739.66,547.91 C740.63,547.14 739.90,548.41 738.04,550.75 C734.23,555.55 732.81,556.48 735.89,552.16 ZM 870.14 716.69 C871.28,714.52 871.28,714.51 869.15,716.40 C867.97,717.45 867.00,718.72 867.00,719.21 C867.00,720.62 868.87,719.13 870.14,716.69 ZM 665.00 895.00 C665.00,895.55 665.93,896.00 667.06,896.00 C668.19,896.00 668.84,895.55 668.50,895.00 C668.16,894.45 667.23,894.00 666.44,894.00 C665.65,894.00 665.00,894.45 665.00,895.00 ZM 354.98 236.25 C354.98,235.84 354.53,234.82 354.00,234.00 C353.22,232.79 353.03,232.93 353.02,234.75 C353.01,235.99 353.45,237.00 354.00,237.00 C354.55,237.00 354.99,236.66 354.98,236.25 ZM 355.57 636.69 C354.93,637.52 354.25,638.41 353.54,639.34 C353.49,639.29 353.35,639.33 353.12,639.47 C352.17,640.02 351.89,639.84 352.20,638.89 C352.46,638.13 353.15,637.50 353.75,637.50 C354.31,637.50 355.09,637.14 355.57,636.69 ZM 283.77 629.09 C291.15,619.22 294.54,614.23 295.39,611.87 C295.38,612.76 295.31,613.39 295.18,613.62 C294.60,614.65 289.64,621.33 283.77,629.09 ZM 707.77 528.44 C707.44,528.10 706.62,528.88 705.96,530.16 C704.82,532.40 704.85,532.42 706.57,530.77 C707.57,529.82 708.11,528.77 707.77,528.44 ZM 257.58 171.44 C257.73,171.40 257.85,171.41 257.93,171.45 C258.37,171.73 259.58,170.95 260.62,169.73 L 262.50 167.50 ZM 864.90 722.57 C864.64,722.31 863.83,723.08 863.10,724.30 C861.84,726.40 861.86,726.42 863.58,724.77 C864.57,723.82 865.17,722.83 864.90,722.57 ZM 255.12 606.73 C255.83,620.68 256.98,631.00 258.05,631.00 C258.41,631.00 258.54,632.37 258.37,634.19 C258.53,632.37 258.40,631.00 258.02,631.00 C256.73,631.00 255.69,620.44 255.12,606.73 ZM 318.83 791.50 C317.60,789.78 315.92,787.28 314.04,784.38 C319.16,791.91 324.73,799.35 330.76,806.75 C326.16,801.11 320.79,794.25 318.83,791.50 ZM 832.66 676.75 C832.38,676.06 832.16,676.62 832.16,678.00 C832.16,679.38 832.38,679.94 832.66,679.25 C832.94,678.56 832.94,677.44 832.66,676.75 ZM 530.50 920.41 C528.65,920.26 526.82,920.11 525.00,919.96 C526.82,920.09 528.66,920.22 530.50,920.33 C533.54,920.52 537.96,920.62 542.95,920.64 C537.50,920.67 533.05,920.60 530.50,920.41 ZM 345.59 760.45 C341.01,753.76 338.17,749.15 334.03,741.72 C337.85,748.49 341.41,754.25 345.59,760.45 ZM 508.07 835.36 C510.28,838.83 512.42,842.45 512.89,843.52 C513.10,843.99 513.69,844.86 514.52,845.94 C513.68,844.86 513.04,843.95 512.76,843.42 C512.18,842.32 510.22,838.94 508.07,835.36 ZM 259.77 645.44 C259.34,643.14 259.15,641.25 259.33,640.60 C259.49,641.41 259.60,642.47 259.63,643.62 C259.65,644.26 259.70,644.87 259.77,645.44 ZM 300.26 745.33 L 299.75 746.05 L 295.20 752.47 L 295.15 752.36 ZM 297.30 756.61 L 298.96 759.68 C299.37,760.43 299.78,761.17 300.19,761.92 C299.11,760.05 298.25,758.50 297.71,757.43 ZM 295.29 609.03 C295.13,607.96 295.00,606.61 294.92,605.34 C295.09,606.63 295.21,607.89 295.29,609.03 ZM 120.90 513.78 C120.97,514.57 121.05,515.00 121.13,515.00 C121.54,515.00 121.62,518.15 121.30,522.00 C121.62,518.15 121.52,515.00 121.08,515.00 C121.02,515.00 120.96,514.57 120.90,513.78 ZM 617.29 872.42 C617.14,872.47 616.97,872.53 616.78,872.59 C616.41,872.72 616.12,872.78 615.90,872.72 C616.23,872.67 616.70,872.57 617.29,872.42 ZM 258.18 638.11 C258.06,637.43 258.09,636.38 258.27,635.00 C258.11,636.25 258.08,637.37 258.18,638.11 Z" fill="url(#frogGrad)"/>
<path d="M 530.50 920.33 C465.96,916.33 412.45,901.93 356.50,873.51 C314.86,852.35 280.77,827.68 247.50,794.62 C224.01,771.28 211.21,755.83 191.88,727.50 C172.25,698.72 152.29,657.68 140.83,622.52 C133.14,598.91 125.47,565.95 126.61,561.40 C127.00,559.84 126.79,559.00 125.99,559.00 C125.22,559.00 124.95,558.07 125.24,556.50 C125.51,555.12 125.42,554.00 125.05,554.00 C124.03,554.00 121.73,533.43 122.48,531.06 C122.90,529.75 122.69,529.00 121.92,529.00 C121.03,529.00 120.87,527.14 121.30,522.00 C121.62,518.15 121.54,515.00 121.13,515.00 C120.71,515.00 120.40,503.19 120.44,488.75 C120.47,474.31 120.81,464.52 121.18,467.00 C121.58,469.64 121.75,466.75 121.59,460.00 C121.44,453.67 121.60,450.08 121.93,452.00 C122.39,454.64 122.85,452.68 123.77,444.00 C125.38,429.03 127.83,415.63 130.01,410.00 C130.96,407.52 132.00,402.58 132.32,399.00 C132.64,395.37 134.90,386.46 137.44,378.81 C139.95,371.28 142.00,364.51 142.00,363.76 C142.00,363.01 142.56,361.84 143.25,361.16 C143.94,360.48 145.40,356.94 146.51,353.29 C148.57,346.49 150.47,344.42 151.68,347.67 C152.75,350.55 159.61,356.81 163.46,358.42 C165.97,359.47 167.59,361.17 169.15,364.36 C171.31,368.82 171.31,368.90 169.57,377.17 C168.60,381.75 167.18,387.43 166.41,389.78 C165.63,392.14 165.00,396.22 165.00,398.86 C165.00,401.49 164.35,405.64 163.55,408.07 C162.15,412.35 161.55,417.46 160.47,434.50 C160.19,438.90 159.51,445.58 158.96,449.33 C158.41,453.09 157.80,465.92 157.60,477.83 C157.40,489.75 157.53,495.45 157.87,490.50 C158.47,481.96 158.54,482.43 159.24,499.50 C161.89,564.14 176.54,618.54 206.10,673.50 C217.18,694.09 237.69,724.72 239.26,723.00 C239.51,722.72 244.77,715.97 250.94,708.00 C272.41,680.27 278.51,672.52 280.25,670.77 C281.21,669.80 282.03,668.66 282.07,668.25 C282.16,667.31 305.01,638.00 305.65,638.00 C305.91,638.00 305.83,638.56 305.49,639.25 C304.56,641.08 311.48,633.33 316.06,627.41 C321.21,620.76 321.12,619.26 315.92,625.00 L 311.84 629.50 L 315.53 624.76 C317.56,622.15 319.57,620.24 320.00,620.50 C320.42,620.76 324.29,616.82 328.60,611.74 C332.91,606.66 337.92,600.92 339.73,599.00 C345.28,593.10 352.00,584.98 352.00,584.17 C352.00,583.74 353.96,582.44 356.36,581.28 C360.68,579.18 360.76,579.18 363.61,581.06 C365.20,582.11 367.17,583.39 368.00,583.90 C369.43,584.78 377.76,586.72 382.95,587.37 C384.29,587.54 385.53,588.10 385.70,588.60 C386.09,589.78 381.27,595.00 379.79,595.00 C379.17,595.00 378.96,594.70 379.32,594.34 C380.32,593.34 377.99,591.00 376.00,591.00 C375.03,591.00 373.68,591.68 372.98,592.52 C371.95,593.76 372.05,594.40 373.53,596.03 C375.98,598.74 375.81,603.50 373.17,606.32 C371.98,607.59 371.00,609.45 371.00,610.46 C371.00,611.47 368.75,614.46 366.00,617.09 C363.25,619.73 361.00,622.75 361.00,623.80 C361.00,624.86 359.88,627.38 358.50,629.40 C355.56,633.74 355.34,634.74 357.75,632.92 C359.26,631.78 359.32,631.79 358.20,633.05 C357.48,633.85 356.40,634.50 355.78,634.50 C355.17,634.50 354.46,635.13 354.20,635.89 C353.89,636.84 354.18,637.03 355.12,636.48 C355.93,636.01 356.16,636.05 355.67,636.59 C355.21,637.09 354.35,637.50 353.75,637.50 C353.15,637.50 352.46,638.13 352.20,638.89 C351.89,639.84 352.17,640.02 353.12,639.47 C353.88,639.02 353.65,639.62 352.62,640.80 C351.58,641.99 350.41,642.75 350.01,642.51 C349.62,642.26 348.39,643.06 347.30,644.28 C343.59,648.42 336.03,659.70 336.60,660.26 C336.91,660.57 331.86,667.73 325.38,676.16 C318.90,684.60 309.64,696.67 304.81,703.00 C299.97,709.33 291.69,720.12 286.40,727.00 C281.11,733.88 274.10,743.00 270.83,747.27 L 264.87 755.05 L 280.19 770.29 C288.61,778.67 300.90,789.84 307.50,795.12 C318.91,804.23 336.95,817.00 338.42,817.00 C338.80,817.00 335.35,812.39 330.76,806.75 C318.24,791.39 307.72,775.82 298.96,759.68 L 295.11 752.59 L 299.75 746.05 C313.95,726.02 316.96,722.56 320.30,722.49 C323.38,722.43 323.75,722.89 330.32,734.97 C338.44,749.90 341.11,754.18 350.85,768.00 C372.81,799.13 405.65,830.94 434.36,848.88 C448.05,857.44 479.22,872.00 483.85,872.00 C484.79,872.00 484.40,870.90 482.60,868.54 C471.76,854.33 459.96,830.60 453.99,811.00 C451.73,803.58 449.73,796.15 449.55,794.50 C449.38,792.85 448.88,790.66 448.46,789.63 C448.04,788.60 447.65,785.56 447.60,782.88 C447.54,780.20 447.11,778.01 446.64,778.01 C446.17,778.00 446.07,776.42 446.43,774.50 C446.80,772.58 446.73,771.00 446.30,771.00 C444.76,770.99 444.94,710.43 446.52,695.79 C447.34,688.25 448.00,676.83 448.00,670.41 C448.00,659.46 449.34,651.00 451.08,651.00 C453.40,651.00 455.00,652.51 455.00,654.70 C455.00,658.74 458.74,663.17 461.86,662.81 C464.10,662.55 464.55,661.95 464.80,658.91 C464.99,656.59 464.55,654.87 463.55,654.04 C461.56,652.39 461.58,650.59 463.61,648.91 C466.26,646.71 468.18,650.39 467.86,657.00 C467.71,660.03 468.06,663.40 468.65,664.50 C469.24,665.60 470.02,667.73 470.38,669.23 C470.74,670.73 472.34,673.46 473.95,675.29 C475.55,677.11 477.13,679.71 477.46,681.05 C478.11,683.75 479.68,711.29 480.99,743.00 C481.45,754.28 482.19,765.30 482.62,767.50 L 483.41 771.50 L 484.09 768.50 C484.73,765.63 484.77,765.67 484.98,769.50 C485.09,771.70 485.31,776.65 485.46,780.50 C485.75,787.91 488.87,798.64 490.65,798.30 C491.24,798.19 492.28,799.99 492.96,802.30 C495.39,810.42 502.11,825.46 506.78,833.20 C509.38,837.50 512.07,842.10 512.76,843.42 C513.45,844.73 516.25,848.21 518.99,851.15 C521.73,854.09 523.97,856.79 523.98,857.15 C524.01,858.00 531.00,864.99 531.85,865.02 C532.21,865.03 534.86,867.23 537.75,869.92 C540.64,872.61 543.00,874.59 543.00,874.32 C543.00,874.05 544.60,874.83 546.55,876.03 L 550.11 878.23 L 555.05 875.16 C560.87,871.54 561.63,871.79 556.25,875.55 C553.30,877.62 553.03,878.02 555.00,877.45 C556.38,877.06 560.03,874.81 563.12,872.47 C566.21,870.13 569.69,867.91 570.87,867.54 C572.04,867.17 573.07,866.11 573.15,865.18 C573.24,864.26 573.37,862.83 573.45,862.00 C573.53,861.17 574.18,860.63 574.90,860.79 C575.62,860.94 576.77,860.61 577.45,860.04 C578.13,859.48 578.97,859.31 579.33,859.66 C579.68,860.02 580.66,858.66 581.50,856.65 C582.34,854.64 583.62,853.00 584.34,853.00 C585.07,853.00 586.29,851.82 587.07,850.38 C587.84,848.93 589.94,846.76 591.73,845.54 C593.52,844.32 596.14,841.11 597.54,838.41 C598.95,835.71 601.23,832.57 602.60,831.42 C603.97,830.28 605.16,828.26 605.23,826.92 C605.39,823.89 606.89,821.81 608.30,822.68 C608.89,823.05 611.73,823.24 614.60,823.10 C619.41,822.88 620.02,823.11 622.10,825.93 C624.25,828.83 624.49,828.91 626.70,827.46 C628.81,826.08 629.10,826.09 629.65,827.53 C629.99,828.41 629.75,830.25 629.12,831.63 C628.29,833.47 627.47,833.97 626.05,833.52 C623.63,832.75 621.76,835.91 621.66,840.93 C621.62,843.19 620.88,845.08 619.66,846.07 C617.47,847.85 613.76,858.73 615.07,859.54 C615.54,859.83 615.73,863.02 615.49,866.63 C615.11,872.50 615.24,873.13 616.78,872.59 C618.35,872.05 618.35,872.11 616.73,873.37 C615.10,874.64 615.18,874.79 617.77,875.30 C619.32,875.61 622.36,875.65 624.54,875.39 C627.00,875.10 629.45,875.48 631.00,876.39 C632.38,877.19 635.50,878.80 637.94,879.95 C640.39,881.11 643.85,883.17 645.63,884.53 C647.41,885.89 649.27,887.00 649.76,887.00 C651.24,887.00 655.00,891.51 655.00,893.29 C655.00,894.20 656.35,895.65 657.99,896.50 C660.64,897.87 660.84,898.28 659.75,900.02 C659.07,901.11 657.92,902.00 657.20,902.00 C655.58,902.00 647.27,904.47 640.50,906.97 C637.75,907.98 633.92,909.10 632.00,909.46 C623.86,910.99 617.22,912.07 613.00,912.56 C610.53,912.85 606.47,913.74 604.00,914.53 C601.53,915.33 594.55,916.61 588.50,917.38 C582.45,918.15 578.85,918.90 580.50,919.05 C591.40,920.04 545.05,921.23 530.50,920.33 ZM 665.00 895.00 C665.00,894.45 665.65,894.00 666.44,894.00 C667.23,894.00 668.16,894.45 668.50,895.00 C668.84,895.55 668.19,896.00 667.06,896.00 C665.93,896.00 665.00,895.55 665.00,895.00 ZM 338.23 658.00 C338.92,656.90 339.89,656.00 340.40,656.00 C340.90,656.00 340.50,656.90 339.50,658.00 C338.50,659.10 337.53,660.00 337.34,660.00 C337.14,660.00 337.55,659.10 338.23,658.00 ZM 261.13 649.10 C260.33,648.60 259.71,646.31 259.63,643.62 C259.56,641.09 259.10,639.01 258.62,639.01 C258.13,639.00 257.98,637.20 258.27,635.00 C258.57,632.80 258.47,631.00 258.05,631.00 C256.53,631.00 254.83,610.05 254.51,587.50 C254.33,574.85 254.48,566.97 254.84,570.00 L 255.51 575.50 L 256.24 567.00 C256.64,562.33 257.41,555.35 257.95,551.50 C258.49,547.65 259.45,540.67 260.09,536.00 C260.72,531.33 262.13,525.03 263.21,522.00 C264.29,518.97 265.60,514.77 266.12,512.65 C266.63,510.53 267.72,508.14 268.53,507.33 C269.51,506.34 270.00,503.77 270.00,499.55 C270.00,495.17 270.46,492.87 271.50,492.00 C272.33,491.32 273.00,491.13 273.00,491.59 C273.00,492.05 274.24,490.95 275.75,489.14 C278.91,485.37 281.18,485.60 282.95,489.89 C283.76,491.83 283.79,493.43 283.06,495.35 C282.21,497.59 282.32,498.19 283.70,498.72 C284.63,499.07 285.55,498.83 285.77,498.18 C285.99,497.53 286.67,497.00 287.28,497.00 C288.06,497.00 288.03,497.37 287.20,498.20 C285.60,499.80 285.68,501.00 287.39,501.00 C288.15,501.00 289.51,502.56 290.41,504.46 C291.48,506.71 292.55,507.73 293.49,507.37 C294.41,507.01 295.09,507.64 295.41,509.16 C296.10,512.41 295.66,517.90 294.75,517.34 C293.88,516.81 293.88,516.82 293.52,528.00 C293.38,532.67 292.96,540.33 292.61,545.00 C291.73,556.58 291.78,594.06 292.69,601.48 C293.37,607.10 293.47,607.27 294.08,604.00 L 294.74 600.50 L 294.88 604.50 C294.96,606.70 295.28,609.42 295.58,610.55 C295.99,612.09 292.84,617.00 283.05,630.05 C268.49,649.48 265.64,651.96 261.13,649.10 ZM 308.43 633.75 C309.98,631.69 311.42,630.00 311.65,630.00 C312.54,630.00 310.08,633.62 307.91,635.51 C306.04,637.14 306.14,636.82 308.43,633.75 ZM 368.41 577.86 C368.06,577.28 368.45,576.12 369.29,575.28 C370.66,573.91 371.05,573.92 373.08,575.34 C375.48,577.02 375.59,576.88 370.53,578.46 C369.72,578.71 368.77,578.44 368.41,577.86 Z" fill="url(#frogGrad)"/>
</g>
</svg>